HIERARCHY
ROOT Hips
{
	OFFSET 0.00000 0.00000 0.00000
	CHANNELS 6 Xposition Yposition Zposition Zrotation Yrotation Xrotation 
	JOINT LHipJoint
	{
		OFFSET 0 0 0
		CHANNELS 3 Zrotation Yrotation Xrotation
		JOINT LeftUpLeg
		{
			OFFSET 1.51378 -1.89840 0.47569
			CHANNELS 3 Zrotation Yrotation Xrotation
			JOINT LeftLeg
			{
				OFFSET 2.53380 -6.96157 0.00000
				CHANNELS 3 Zrotation Yrotation Xrotation
				JOINT LeftFoot
				{
					OFFSET 2.74874 -7.55212 0.00000
					CHANNELS 3 Zrotation Yrotation Xrotation
					JOINT LeftToeBase
					{
						OFFSET 0.18263 -0.50178 1.99677
						CHANNELS 3 Zrotation Yrotation Xrotation
						End Site
						{
							OFFSET 0.00000 -0.00000 1.03711
						}
					}
				}
			}
		}
	}
	JOINT RHipJoint
	{
		OFFSET 0 0 0
		CHANNELS 3 Zrotation Yrotation Xrotation
		JOINT RightUpLeg
		{
			OFFSET -1.43037 -1.89840 0.47569
			CHANNELS 3 Zrotation Yrotation Xrotation
			JOINT RightLeg
			{
				OFFSET -2.69849 -7.41406 0.00000
				CHANNELS 3 Zrotation Yrotation Xrotation
				JOINT RightFoot
				{
					OFFSET -2.69369 -7.40087 0.00000
					CHANNELS 3 Zrotation Yrotation Xrotation
					JOINT RightToeBase
					{
						OFFSET -0.28932 -0.79491 2.04975
						CHANNELS 3 Zrotation Yrotation Xrotation
						End Site
						{
							OFFSET 0.00009 0.00010 1.09536
						}
					}
				}
			}
		}
	}
	JOINT LowerBack
	{
		OFFSET 0 0 0
		CHANNELS 3 Zrotation Yrotation Xrotation
		JOINT Spine
		{
			OFFSET 0.01912 1.94784 -0.02419
			CHANNELS 3 Zrotation Yrotation Xrotation
			JOINT Spine1
			{
				OFFSET 0.07565 1.94258 0.01909
				CHANNELS 3 Zrotation Yrotation Xrotation
				JOINT Neck
				{
					OFFSET 0 0 0
					CHANNELS 3 Zrotation Yrotation Xrotation
					JOINT Neck1
					{
						OFFSET -0.07010 1.86195 0.18976
						CHANNELS 3 Zrotation Yrotation Xrotation
						JOINT Head
						{
							OFFSET 0.02284 1.86595 -0.31497
							CHANNELS 3 Zrotation Yrotation Xrotation
							End Site
							{
								OFFSET 0.01200 1.90122 -0.12838
							}
						}
					}
				}
				JOINT LeftShoulder
				{
					OFFSET 0 0 0
					CHANNELS 3 Zrotation Yrotation Xrotation
					JOINT LeftArm
					{
						OFFSET 3.39189 0.96331 -0.10437
						CHANNELS 3 Zrotation Yrotation Xrotation
						JOINT LeftForeArm
						{
							OFFSET 5.14845 -0.00000 0.00000
							CHANNELS 3 Zrotation Yrotation Xrotation
							JOINT LeftHand
							{
								OFFSET 3.43674 -0.00000 -0.00000
								CHANNELS 3 Zrotation Yrotation Xrotation
								JOINT LeftFingerBase
								{
									OFFSET 0 0 0
									CHANNELS 3 Zrotation Yrotation Xrotation
									JOINT LeftHandIndex1
									{
										OFFSET 0.58871 -0.00000 0.00000
										CHANNELS 3 Zrotation Yrotation Xrotation
										End Site
										{
											OFFSET 0.47463 -0.00000 0.00000
										}
									}
								}
								JOINT LThumb
								{
									OFFSET 0 0 0
									CHANNELS 3 Zrotation Yrotation Xrotation
									End Site
									{
										OFFSET 0.48188 -0.00000 0.48188
									}
								}
							}
						}
					}
				}
				JOINT RightShoulder
				{
					OFFSET 0 0 0
					CHANNELS 3 Zrotation Yrotation Xrotation
					JOINT RightArm
					{
						OFFSET -3.34934 1.18831 -0.19928
						CHANNELS 3 Zrotation Yrotation Xrotation
						JOINT RightForeArm
						{
							OFFSET -5.42185 -0.00000 0.00000
							CHANNELS 3 Zrotation Yrotation Xrotation
							JOINT RightHand
							{
								OFFSET -3.51317 -0.00000 -0.00000
								CHANNELS 3 Zrotation Yrotation Xrotation
								JOINT RightFingerBase
								{
									OFFSET 0 0 0
									CHANNELS 3 Zrotation Yrotation Xrotation
									JOINT RightHandIndex1
									{
										OFFSET -0.66319 -0.00000 0.00000
										CHANNELS 3 Zrotation Yrotation Xrotation
										End Site
										{
											OFFSET -0.53468 -0.00000 0.00000
										}
									}
								}
								JOINT RThumb
								{
									OFFSET 0 0 0
									CHANNELS 3 Zrotation Yrotation Xrotation
									End Site
									{
										OFFSET -0.54284 -0.00000 0.54284
									}
								}
							}
						}
					}
				}
			}
		}
	}
}
MOTION
Frames: 14
Frame Time: 0.0307692
0.00 0.00 0.00 0 0 0 0 0 0 -21 0 0 0 0 0 0 0 0 0 0 0 0 0 0 21 0 0 0 0 0 0 0 0 0 0 0 0 0 0 0 0 0 0 0 0 0 0 -16 0 0 21 0 0 11 0 0 0 -8 0 0 0 0 0 0 0 0 0 0 0 0 0 0 0 0 0 0 0 0 8 0 0 0 0 0 0 0 0 0 0 0 0 0 0 0 0 0
0.00 0.00 0.00 -80.7664 -87.2675 86.1295 0.0000 0.0000 0.0000 -19.3207 -8.4129 -11.4512 1.9349 8.7291 24.9516 0.8623 0.8022 -17.8536 0.0015 -0.2485 -0.6829 0.0000 0.0000 0.0000 26.3562 7.0418 -13.9169 -3.0384 -10.7569 31.4643 -1.7051 -3.2044 -25.9923 -0.0374 -1.2484 3.4326 -0.4603 1.4825 -1.5214 2.5594 1.8992 1.8919 2.9623 0.8988 2.6944 -0.9955 6.6738 -9.7351 -3.5424 9.9260 39.0985 0.0461 2.9890 15.5719 0.0000 0.0000 0.0000 -81.7216 -0.8731 52.8124 39.7776 -47.9376 -18.2739 -0.0000 -0.0000 29.9496 26.4486 14.2301 6.9717 -7.1250 0.0000 -0.0000 -0.9675 45.7919 -0.0189 0.0000 0.0000 0.0000 87.1342 -0.9432 16.1074 -17.0498 26.9234 -4.1099 0.0000 -0.0000 -0.4416 -26.4981 11.8771 -5.8584 7.1250 -0.0000 -0.0000 0.4827 -16.7553 0.3231
0.00 0.00 0.00 -39.3879 -85.8867 45.0713 0.0000 0.0000 0.0000 -19.4215 -7.8529 -12.1587 1.8992 8.6528 24.7151 0.9017 -2.4196 -17.2916 0.0161 -0.8191 -2.2512 0.0000 0.0000 0.0000 26.1536 6.2886 -14.5710 -3.1143 -10.8779 31.8690 -1.7163 -4.8222 -26.8737 -0.0209 -0.9323 2.5626 -1.1064 1.6592 -2.1875 2.5828 2.1733 1.1268 3.3645 1.0405 2.2419 -1.2268 6.6273 -9.0666 -4.2179 10.1798 39.1925 -0.1844 2.9873 15.5182 -0.0000 -0.0000 0.0000 -73.7177 -8.6044 68.2912 73.5533 -58.9528 -45.8068 -0.0000 -0.0000 37.6145 31.9437 8.6894 5.3812 -7.1250 0.0000 -0.0000 4.4392 40.1513 -0.5318 -0.0000 -0.0000 0.0000 87.2086 -1.9652 13.2595 -14.5202 23.4735 -3.0322 0.0000 0.0000 2.1568 -25.5048 12.2175 -5.7651 7.1250 -0.0000 -0.0000 1.1949 -16.4910 0.8067
0.00 0.00 0.00 -174.7920 -55.7168 188.6250 0.0000 0.0000 0.0000 -17.7718 -1.2484 -18.0864 0.9727 6.2786 17.5951 -1.9940 24.7539 -16.0633 0.0193 -0.8972 -2.4660 0.0000 0.0000 0.0000 18.5925 -0.7224 -31.4158 -1.9157 -8.6882 24.8247 0.9491 -24.0329 -27.2020 -0.2729 -3.3602 9.2833 -2.4929 0.4136 1.2145 3.8715 0.4072 2.2616 5.4052 0.0871 1.5999 -10.3650 -10.9352 -6.5184 9.1535 -17.3455 23.9119 2.7714 -8.4093 10.4224 0.0000 0.0000 0.0000 -85.7957 -4.5822 19.3574 13.5172 -22.0403 -2.6442 -0.0000 -0.0000 3.6352 22.0862 25.4195 9.8805 -7.1250 0.0000 -0.0000 -8.4133 56.9344 -2.4724 0.0000 0.0000 0.0000 88.3166 -1.1733 5.9671 -14.6554 23.6639 -3.0863 0.0000 0.0000 0.3207 -28.7110 12.5013 -6.7616 7.1250 -0.0000 -0.0000 -0.9969 -15.7941 -0.6880
0.00 0.00 0.00 -175.4620 -26.2596 186.8490 0.0000 0.0000 0.0000 -8.8868 6.2448 -19.2914 5.5622 13.9902 43.1983 -0.4527 14.5739 -14.4845 0.1273 2.3001 6.3359 0.0000 0.0000 0.0000 29.1240 3.7682 -18.3516 -1.7597 -8.3466 23.7719 -0.8204 -4.4108 -19.2619 -0.0042 -0.4162 1.1436 0.7273 -0.0201 0.7708 5.0706 -0.2627 1.0629 4.8211 -0.2392 0.6818 -6.1678 -6.1717 -11.7202 4.7077 -10.3641 26.8725 1.2675 -5.3016 11.1982 -0.0000 0.0000 0.0000 -87.7055 -5.0291 12.2796 23.7335 -34.8811 -7.5536 -0.0000 0.0000 -3.3007 19.9683 23.6435 8.2906 -7.1250 0.0000 -0.0000 -9.8611 54.6850 -2.3633 -0.0000 0.0000 0.0000 85.0944 1.6258 14.2878 -16.7443 26.5195 -3.9725 0.0000 0.0000 0.1343 -26.7241 11.9618 -5.9573 7.1250 -0.0000 -0.0000 0.3319 -16.6361 0.2230
0.00 0.00 0.00 -174.6190 -7.8465 189.3540 0.0000 0.0000 0.0000 -15.4584 -9.6435 -27.4843 0.3573 3.8401 10.6274 -0.3482 11.3689 -9.1135 0.0407 -1.3021 -3.5805 0.0000 0.0000 0.0000 30.8964 4.9914 -9.3089 -1.6107 -8.0032 22.7238 -1.3743 5.8756 -21.0118 -0.0193 -0.8970 2.4656 2.1204 0.6489 0.2173 6.0023 0.4174 1.1288 5.0104 0.0306 1.0169 -1.9114 0.1863 -13.2040 -0.7222 -1.4865 31.8477 -0.3549 -1.8282 12.7969 -0.0000 -0.0000 0.0000 -92.3569 -0.3027 22.3329 16.3101 -25.9392 -3.7806 -0.0000 -0.0000 5.5890 13.7924 23.4434 5.5780 -7.1250 0.0000 -0.0000 -15.9802 53.3282 -3.3405 -0.0000 -0.0000 0.0000 83.0885 2.6735 10.1322 -17.1289 27.0274 -4.1458 0.0000 -0.0000 -1.2530 -27.6388 10.9190 -5.6647 7.1250 -0.0000 -0.0000 -0.3813 -17.6949 -0.2474
0.00 0.00 0.00 -175.2070 -6.6478 187.5850 0.0000 0.0000 0.0000 -18.9541 -4.6557 -22.4162 0.7490 5.5279 15.4206 -0.2470 9.0137 -5.5236 0.2866 3.4427 9.5138 0.0000 0.0000 0.0000 28.5104 1.2775 -6.6761 -3.9215 -12.0552 35.9275 -0.3912 9.8475 -12.2324 -0.1852 2.7720 -7.6445 -1.3140 0.9235 -0.7221 3.5160 1.0825 1.5450 4.3857 0.4448 1.8992 -1.9250 3.1604 -12.2987 -3.7185 3.6019 32.8528 -0.8155 -0.1187 13.0790 -0.0000 -0.0000 0.0000 -90.9092 -0.2416 16.6463 14.9289 -24.0470 -3.1969 -0.0000 -0.0000 2.6397 18.1137 24.8873 7.8381 -7.1250 0.0000 -0.0000 -12.3312 55.5705 -3.2347 -0.0000 -0.0000 0.0000 90.6685 -4.8271 -1.0035 -12.0028 19.8088 -2.1032 0.0000 0.0000 7.5789 -25.0797 11.2454 -5.2147 7.1250 -0.0000 -0.0000 1.4321 -17.6006 0.9323
0.00 0.00 0.00 -176.4410 -7.8393 186.0860 0.0000 0.0000 0.0000 -21.5303 -2.5980 -19.4735 0.9108 6.0812 17.0202 -0.0383 6.3209 -7.9237 0.2417 3.1637 8.7349 0.0000 0.0000 0.0000 24.8602 -1.3629 -12.8101 -7.2833 -15.5659 49.9380 0.3231 10.4797 0.5585 -0.0074 0.5558 -1.5273 -2.2582 0.9332 -0.2552 2.6872 1.1638 1.7194 4.0546 0.4964 1.8075 -1.9820 3.9457 -11.8884 -4.8490 5.0297 33.1594 -1.0618 0.2979 13.1894 -0.0000 0.0000 0.0000 -90.4267 -1.1209 17.8217 14.6141 -23.6057 -3.0697 -0.0000 -0.0000 3.4053 17.0056 24.4822 7.2233 -7.1250 0.0000 -0.0000 -13.2689 54.9488 -3.2849 -0.0000 0.0000 0.0000 90.6277 -6.0454 1.2038 -12.2341 20.1549 -2.1823 0.0000 0.0000 7.1777 -24.9969 11.2286 -5.1876 7.1250 -0.0000 -0.0000 1.4892 -17.6273 0.9687
0.00 0.00 0.00 -177.7340 -9.5120 185.1250 0.0000 0.0000 0.0000 -23.7126 -1.4050 -16.1675 0.9230 6.1208 17.1353 0.1230 4.5959 -9.8837 0.0866 1.8986 5.2256 0.0000 0.0000 0.0000 21.2773 1.0932 -20.8622 -11.8908 -18.3441 65.6421 -0.2515 3.9150 11.7423 -0.5369 -4.6951 13.0410 -3.2117 1.0410 0.0222 1.8377 1.3497 1.9535 3.7135 0.5864 1.8758 -2.1004 4.8571 -11.4106 -5.6617 6.5335 33.7035 -1.1741 0.7644 13.3970 -0.0000 -0.0000 0.0000 -89.7052 -2.3524 20.4601 15.9710 -25.4814 -3.6335 -0.0000 -0.0000 3.0598 16.7381 23.6691 6.8842 -7.1250 0.0000 -0.0000 -13.1557 54.0916 -2.9793 -0.0000 -0.0000 0.0000 89.5537 -3.2675 2.2263 -11.3920 18.8866 -1.9009 0.0000 0.0000 7.8131 -25.6654 11.7219 -5.5758 7.1250 -0.0000 -0.0000 1.0516 -17.0174 0.6979
0.00 0.00 0.00 -177.8890 -12.9019 183.5690 0.0000 0.0000 0.0000 -23.9494 -1.9745 -12.8545 1.0685 6.5713 18.4513 0.2915 3.0289 -11.7739 0.0386 1.2688 3.4888 0.0000 0.0000 0.0000 20.5563 2.2043 -25.6378 -13.8434 -19.0659 71.7257 0.0020 -1.3345 -1.6351 -0.0416 1.3159 -3.6184 -3.4587 0.9555 0.6278 1.5829 1.2138 2.3326 3.5808 0.5038 1.9385 -2.6979 5.3629 -11.5904 -5.3838 7.2979 34.8873 -0.8825 0.9519 13.9477 0.0000 -0.0000 0.0000 -89.7203 -3.0055 21.3577 18.1509 -28.3499 -4.6207 -0.0000 -0.0000 0.2185 20.0255 24.4882 8.5911 -7.1250 0.0000 -0.0000 -10.1680 55.5543 -2.6538 0.0000 -0.0000 0.0000 88.7356 -1.4966 4.9561 -12.4885 20.5333 -2.2707 0.0000 0.0000 5.4573 -26.1642 10.6935 -5.2087 7.1250 -0.0000 -0.0000 0.6385 -18.0989 0.4086
0.00 0.00 0.00 -176.9370 -21.5328 182.6650 0.0000 0.0000 0.0000 -22.4405 -4.1113 -12.0610 1.6903 8.1887 23.2886 0.6601 -1.9183 -14.8136 0.0000 0.0391 0.1075 0.0000 0.0000 0.0000 20.9232 4.3977 -29.6382 -11.1989 -18.0311 63.4259 -0.3212 -8.5033 -16.9939 -0.0096 0.6332 -1.7401 -3.2039 0.5189 1.0269 1.7717 0.6186 2.1688 3.6224 0.2200 1.5979 -3.3722 4.5353 -11.3246 -4.8991 6.2081 35.1136 -0.7269 0.5071 13.9185 0.0000 -0.0000 0.0000 -89.0350 -3.6729 25.8676 21.1784 -32.0360 -6.1443 -0.0000 0.0000 -2.1793 17.7052 23.9343 7.3794 -7.1250 0.0000 -0.0000 -12.3003 54.5393 -2.9160 0.0000 -0.0000 0.0000 86.9185 -0.2738 10.4500 -15.2493 24.4922 -3.3286 0.0000 0.0000 0.9804 -27.0882 10.5032 -5.3266 7.1250 -0.0000 -0.0000 -0.0239 -18.2167 -0.0152
0.00 0.00 0.00 0.0340 -33.2319 9.2352 0.0000 0.0000 0.0000 -19.5074 -2.7783 -21.4900 0.5390 4.7040 13.0662 0.1350 3.5626 -9.1871 2.2381 -9.3453 -26.8816 0.0000 0.0000 0.0000 18.9818 -11.4970 -18.3034 -4.2883 -12.5345 37.6500 0.4530 -25.1332 -32.6193 -0.5560 -4.7762 13.2713 -3.1977 3.5948 -0.1451 0.6736 4.8114 1.2465 2.5128 2.3699 1.0402 -2.6890 2.1620 -11.9118 -6.5026 5.6164 30.2145 -1.2227 1.3229 12.0599 0.0000 0.0000 0.0000 -94.5927 1.9967 1.2210 10.2951 -17.1999 -1.5611 -0.0000 -0.0000 10.5638 15.5209 25.4641 6.8091 -7.1250 0.0000 -0.0000 -15.2790 55.6216 -4.0510 0.0000 0.0000 0.0000 84.2276 4.9316 15.2519 -20.3032 31.0058 -5.6867 0.0000 -0.0000 -1.3796 -26.6294 11.8804 -5.8934 7.1250 -0.0000 -0.0000 0.3918 -16.7370 0.2624
0.00 0.00 0.00 -2.6818 -7.8286 6.0699 0.0000 0.0000 0.0000 -20.5220 -11.1948 -10.0590 1.3921 7.4646 21.0992 0.5657 -10.4829 -14.2904 0.0587 -1.5639 -4.3020 0.0000 0.0000 0.0000 20.0297 6.3000 -35.0423 -0.7658 -5.5884 15.5947 0.4984 -15.2263 -15.0847 -0.7094 5.3830 -15.0042 -4.6840 2.2846 1.4803 0.9220 2.9993 1.4743 3.5313 1.4609 0.3977 -4.7686 0.0737 -12.6056 -4.4474 2.8291 31.2539 -0.4683 0.1194 12.4909 -0.0000 -0.0000 0.0000 -85.3010 -9.1779 24.3740 23.7553 -34.9044 -7.5661 -0.0000 0.0000 -7.3424 21.6362 24.7714 9.4363 -7.1250 0.0000 -0.0000 -8.6057 56.1743 -2.3709 -0.0000 -0.0000 0.0000 88.4672 -0.6748 8.1376 -13.3784 21.8392 -2.5924 0.0000 0.0000 6.6932 -25.3777 11.4925 -5.3991 7.1250 -0.0000 -0.0000 1.2381 -17.2995 0.8141
0.00 0.00 0.00 -2.5696 -3.9936 4.5300 0.0000 0.0000 0.0000 -21.4785 -8.5206 -3.0170 1.1327 6.7593 19.0043 0.6845 -12.9714 -16.1885 0.1612 -2.5868 -7.1305 0.0000 0.0000 0.0000 23.1660 5.4354 -38.0584 -1.4756 -7.6756 21.7329 0.0783 -5.1363 -0.4347 -0.7042 5.3636 -14.9487 -3.7437 0.9985 2.0206 2.0260 1.2750 2.0804 4.1719 0.5786 0.8787 -4.2601 0.0854 -12.4526 -5.1154 2.9411 31.7108 -0.8032 0.1323 12.6693 -0.0000 0.0000 0.0000 -88.8052 -4.6931 17.4535 16.0039 -25.5259 -3.6476 -0.0000 0.0000 -1.9443 19.6268 26.6490 9.0874 -7.1250 0.0000 -0.0000 -11.6383 57.6477 -3.6365 -0.0000 0.0000 0.0000 88.2120 -0.1387 12.0255 -16.2048 25.7976 -3.7347 0.0000 0.0000 1.6824 -26.2655 11.7198 -5.7241 7.1250 -0.0000 -0.0000 0.6337 -16.9548 0.4214
